<?xml version="1.0" standalone="no"?>
<!DOCTYPE svg PUBLIC "-//W3C//DTD SVG 20010904//EN"
 "http://www.w3.org/TR/2001/REC-SVG-20010904/DTD/svg10.dtd">
<svg version="1.0" xmlns="http://www.w3.org/2000/svg"
 width="489.000000pt" height="167.000000pt" viewBox="0 0 489.000000 167.000000"
 preserveAspectRatio="xMidYMid meet">

<g transform="translate(0.000000,167.000000) scale(0.100000,-0.100000)"
fill="#000000" stroke="none">
<path d="M0 835 l0 -835 2445 0 2445 0 0 835 0 835 -457 -1 -458 0 85 -25
c102 -30 227 -97 295 -158 l50 -45 -65 6 c-36 3 -75 13 -87 20 -12 8 -27 12
-33 8 -6 -4 -9 -1 -8 6 4 17 -82 64 -162 88 -106 33 -195 44 -303 38 -127 -7
-226 -37 -345 -105 -66 -37 -101 -51 -144 -56 -34 -3 -58 -2 -58 3 0 17 133
110 205 144 39 19 97 42 130 51 33 10 65 19 70 21 6 2 -803 4 -1797 4 l-1808
1 0 -835z m3926 711 c59 -8 129 -31 127 -41 -1 -6 -16 -13 -32 -16 -30 -6 -74
-31 -99 -56 -9 -9 -32 -11 -75 -7 -34 3 -82 1 -107 -4 -45 -8 -85 -3 -78 10 5
12 -64 58 -86 58 -12 0 -27 4 -34 9 -17 10 55 38 117 45 24 3 45 7 48 9 5 5
164 0 219 -7z m-376 -85 c0 -5 15 -15 34 -21 19 -6 40 -18 48 -27 11 -14 10
-18 -7 -27 -47 -26 -113 -103 -129 -151 -10 -27 -22 -58 -27 -67 -5 -10 -9
-23 -9 -29 0 -5 -12 -27 -27 -47 -33 -45 -49 -63 -38 -42 5 8 -4 4 -18 -9 -18
-16 -31 -21 -44 -16 -10 5 -22 7 -26 6 -5 -1 -5 4 -1 10 3 6 3 14 -2 18 -20
14 -65 112 -70 155 -7 45 -24 71 -32 48 -2 -7 -8 -12 -14 -12 -9 0 -8 14 5 93
7 37 91 67 190 67 36 0 59 5 67 15 7 8 23 15 35 15 32 0 56 10 49 21 -3 5 0 9
5 9 6 0 11 -4 11 -9z m495 -2 c-5 -7 93 -35 108 -31 4 1 7 -2 7 -7 0 -5 38
-10 84 -13 114 -6 162 -39 168 -117 3 -39 -16 -53 -27 -19 -6 19 -8 15 -15
-24 -17 -101 -81 -228 -114 -228 -32 0 -125 107 -133 152 -4 28 -53 131 -70
150 -9 10 -20 15 -25 12 -4 -3 -7 0 -6 6 2 7 -6 17 -17 23 -11 7 -22 15 -25
18 -3 3 -11 8 -18 10 -19 6 29 57 50 53 10 -1 15 3 12 10 -3 7 2 13 10 13 8 0
13 -4 11 -8z m-889 -93 c-9 -19 -16 -49 -16 -68 0 -18 -7 -43 -15 -55 -85
-122 -127 -313 -105 -477 26 -193 95 -325 249 -473 61 -59 158 -121 184 -117
9 1 15 -2 14 -7 -2 -11 95 -53 144 -63 17 -3 49 -22 70 -41 l39 -35 -51 0
c-97 0 -262 63 -370 142 -168 121 -289 297 -339 492 -59 230 7 527 152 691 55
61 70 65 44 11z m1418 -145 c67 -129 80 -190 80 -361 1 -121 -3 -158 -22 -223
-77 -268 -292 -491 -560 -579 -48 -16 -107 -28 -136 -28 -46 0 -52 2 -53 22
-1 14 1 18 5 11 6 -10 13 -9 30 3 12 8 20 19 17 24 -3 5 18 12 47 17 29 5 52
13 51 19 -1 5 12 10 28 11 15 1 43 10 61 20 18 9 36 16 41 15 4 -1 7 5 7 14 0
8 5 12 10 9 6 -3 12 0 15 7 3 8 16 15 28 15 12 1 29 11 39 23 9 11 21 20 27
20 5 0 13 5 17 12 5 7 3 8 -6 3 -9 -5 -11 -4 -6 3 4 7 13 12 20 12 18 0 48 35
39 45 -5 4 -3 5 3 2 6 -3 24 8 40 25 16 17 22 28 14 23 -8 -4 0 6 18 22 17 16
32 37 32 47 0 11 3 17 6 13 3 -3 20 22 36 56 72 147 84 201 81 372 -3 113 -14
154 -75 283 -33 68 -48 111 -44 126 3 13 -3 35 -14 54 -35 57 -20 59 30 3 28
-30 70 -93 94 -140z m-606 115 c45 -23 82 -80 107 -163 19 -61 63 -124 156
-223 8 -9 13 -22 11 -28 -2 -7 0 -12 5 -12 5 0 10 -18 11 -40 3 -41 -10 -53
-26 -24 -6 11 -9 0 -11 -37 -1 -30 -6 -58 -11 -63 -6 -6 -10 -18 -10 -27 0 -9
-7 -19 -15 -23 -11 -4 -15 2 -15 22 0 15 -5 34 -11 42 -9 13 -10 13 -6 0 8
-27 -28 -82 -73 -113 -36 -25 -52 -22 -44 8 6 24 5 25 -47 25 -62 0 -104 21
-142 72 -30 41 -39 84 -21 103 8 7 11 20 8 28 -4 11 1 13 20 10 21 -4 26 -1
26 15 0 30 -26 45 -79 45 -54 1 -81 -14 -81 -45 0 -16 5 -19 24 -14 26 6 25 8
29 -64 2 -51 -5 -72 -33 -98 -41 -39 -81 -55 -132 -53 -51 1 -53 0 -38 -30 9
-16 7 -19 -15 -19 -38 0 -105 68 -105 106 -1 25 -2 27 -11 11 -6 -10 -8 -21
-5 -24 3 -3 1 -14 -5 -25 -10 -18 -23 -17 -25 0 0 4 -4 16 -8 27 -4 11 -12 32
-18 47 -6 15 -8 42 -6 59 l5 31 -18 -23 -19 -24 0 27 c0 15 -5 30 -11 33 -7 5
-6 12 4 23 8 10 24 36 37 59 13 23 26 40 30 38 3 -2 13 5 21 17 8 11 25 33 38
47 30 34 53 79 46 91 -3 5 1 12 9 17 8 4 16 19 18 33 1 14 6 27 10 30 3 3 8
12 10 20 5 24 70 90 95 96 13 4 23 10 23 16 0 5 4 7 9 3 5 -3 12 -1 16 5 4 6
9 9 13 6 4 -2 36 -1 72 3 65 7 112 -4 188 -43z m-768 -188 c13 -35 27 -65 30
-68 13 -13 50 -70 50 -79 0 -13 -170 -19 -188 -5 -12 9 -12 17 -1 55 7 24 16
46 20 49 4 3 9 20 12 38 5 31 31 72 46 72 4 0 17 -28 31 -62z m1246 35 c24
-34 68 -169 59 -183 -7 -12 -182 -14 -189 -2 -3 5 6 25 20 45 13 20 23 41 22
46 -2 5 6 17 17 26 11 9 15 14 9 11 -6 -3 -1 15 10 39 12 24 24 44 27 45 3 0
14 -12 25 -27z m-3086 -163 c23 -23 24 -33 10 -61 -13 -23 -28 -24 -50 -4 -21
19 -46 11 -108 -34 -50 -37 -102 -114 -102 -151 0 -29 17 -55 40 -62 21 -7 80
25 115 63 30 32 30 32 5 24 -64 -19 -88 -18 -100 5 -16 29 -3 40 76 68 69 25
104 28 122 10 33 -33 -7 -132 -73 -182 -46 -36 -135 -67 -166 -59 -90 23 -123
108 -76 201 71 143 243 246 307 182z m1398 4 c25 -17 28 -42 8 -69 -13 -18
-15 -18 -40 -2 -25 17 -28 16 -63 -2 -54 -28 -113 -89 -135 -139 -17 -37 -18
-48 -8 -72 15 -37 35 -41 85 -17 45 22 73 44 86 69 9 16 7 16 -26 3 -54 -23
-83 -20 -91 10 -8 32 -6 34 58 57 75 27 94 31 123 24 51 -13 37 -96 -28 -165
-38 -39 -129 -83 -174 -83 -59 0 -123 60 -123 116 0 46 45 129 98 184 90 91
177 124 230 86z m-2232 -25 c67 -33 97 -79 91 -141 -10 -117 -133 -203 -317
-224 -79 -10 -110 43 -41 69 26 9 32 20 47 76 9 37 22 88 30 116 11 43 11 51
-1 58 -28 15 -36 44 -18 62 25 25 145 16 209 -16z m1370 16 c31 -9 63 -28 84
-50 33 -34 35 -41 35 -100 0 -56 -4 -68 -31 -102 -17 -21 -46 -48 -64 -61 -37
-25 -153 -62 -217 -70 -74 -8 -101 41 -39 71 26 12 36 24 40 49 4 18 16 68 28
111 l21 78 -21 15 c-24 16 -30 59 -9 67 26 11 126 6 173 -8z m-938 -11 c77
-54 64 -192 -28 -298 -49 -55 -97 -76 -175 -76 -56 0 -69 4 -90 24 -66 66 -32
186 88 313 l50 53 66 0 c44 0 74 -5 89 -16z m1403 6 c75 -41 62 -208 -24 -299
-60 -63 -99 -81 -175 -81 -58 0 -72 3 -90 23 -60 64 -48 144 41 265 62 84 91
102 165 102 35 0 72 -5 83 -10z m847 -93 c3 -23 7 -27 30 -25 25 3 27 0 27
-32 0 -32 -2 -35 -27 -32 -25 2 -28 0 -28 -28 0 -28 -3 -30 -35 -30 -33 0 -35
2 -35 31 0 29 -2 31 -30 27 -29 -4 -30 -3 -30 33 0 35 2 38 28 36 23 -2 27 2
30 26 3 25 7 28 35 25 27 -2 33 -8 35 -31z m1254 6 c2 -22 8 -28 28 -28 21 0
26 -5 28 -32 3 -33 -2 -37 -40 -34 -14 2 -18 -5 -18 -28 0 -29 -3 -31 -34 -31
-30 0 -35 3 -38 28 -2 15 -9 28 -15 28 -7 1 -19 2 -27 3 -8 0 -16 16 -18 37
-4 33 -2 35 19 31 12 -2 20 0 17 4 -3 5 2 9 10 9 9 0 16 9 16 20 0 16 7 20 34
20 30 0 35 -3 38 -27z m-1129 -192 c10 -1 21 -12 26 -24 5 -13 23 -35 40 -50
29 -24 30 -27 19 -59 -6 -18 -17 -37 -24 -43 -19 -14 -62 -116 -58 -137 1 -10
-1 -18 -4 -18 -4 0 -8 -12 -9 -26 0 -15 -6 -30 -13 -34 -14 -9 -74 46 -65 60
3 6 -3 10 -15 10 -16 0 -20 5 -16 15 3 9 0 15 -9 15 -8 0 -15 9 -15 20 0 11
-4 20 -10 20 -5 0 -10 6 -10 14 0 8 -7 17 -16 20 -9 3 -14 13 -10 21 3 8 1 17
-5 21 -15 9 -37 69 -43 116 -1 10 -5 21 -9 24 -34 34 29 43 246 35z m1155 -1
c20 0 22 -4 19 -32 -3 -18 -9 -46 -16 -61 -6 -15 -14 -39 -17 -53 -3 -13 -10
-27 -15 -30 -5 -3 -9 -14 -9 -24 0 -10 -3 -20 -7 -22 -11 -4 -65 -78 -59 -78
7 0 -18 -31 -57 -72 -29 -30 -47 -30 -47 2 0 10 -5 22 -11 25 -6 4 -8 13 -5
21 3 8 0 14 -6 14 -6 0 -9 3 -6 6 4 3 0 21 -8 40 -8 19 -11 34 -8 34 3 0 -4 9
-17 20 -16 13 -19 19 -10 20 12 0 12 2 -1 13 -8 6 -20 27 -26 45 -10 29 -8 36
17 65 15 17 30 40 34 49 7 20 28 24 142 21 50 -2 100 -3 113 -3z m-641 -33
c25 -24 30 -34 23 -48 -21 -38 -119 -35 -138 4 -8 18 -5 26 17 48 34 34 59 32
98 -4z m-126 -100 c20 -13 37 -16 68 -11 22 4 41 12 41 18 0 6 5 4 10 -4 7
-11 10 -11 10 -2 0 7 4 11 8 8 4 -3 25 -1 45 4 20 4 35 4 32 0 -6 -10 24 -18
47 -12 10 2 15 9 11 15 -3 6 -1 7 5 3 6 -4 8 -14 5 -22 -5 -13 1 -15 42 -9
l47 8 -17 -34 c-10 -19 -33 -51 -51 -72 -19 -20 -34 -42 -34 -47 0 -6 -7 -10
-15 -10 -7 0 -18 -7 -23 -16 -5 -9 -12 -15 -16 -15 -16 3 -66 -31 -60 -41 4
-7 3 -8 -5 -4 -6 4 -28 2 -47 -4 -34 -12 -41 -10 -115 29 -44 23 -79 38 -79
34 0 -3 -9 2 -20 12 -11 10 -17 23 -13 29 4 6 -2 4 -12 -4 -17 -14 -18 -14 -8
5 9 15 8 23 -3 35 -8 8 -28 33 -45 55 l-31 40 34 5 c18 3 35 2 38 -1 6 -9 100
12 100 22 0 11 22 5 51 -14z m259 17 c0 -8 -19 -13 -24 -6 -3 5 1 9 9 9 8 0
15 -2 15 -3z m-319 -249 c62 -38 64 -45 22 -78 -30 -24 -53 -69 -53 -102 0
-14 -3 -25 -8 -25 -11 0 -141 48 -175 65 -16 8 -34 12 -40 8 -6 -3 -7 -1 -3 5
4 7 -3 17 -18 23 -22 10 -25 17 -22 58 1 25 -1 57 -6 70 -6 18 -5 22 5 18 8
-3 14 0 15 6 1 7 4 23 6 37 2 14 5 29 5 33 1 5 5 6 9 3 5 -3 19 13 31 35 l23
40 74 -80 c41 -44 102 -96 135 -116z m502 165 c10 -16 23 -30 28 -30 6 0 8 -4
5 -9 -4 -5 4 -7 16 -4 21 4 21 3 6 -9 -15 -13 -15 -19 -2 -68 8 -30 14 -62 14
-72 0 -10 7 -18 18 -18 13 0 14 -2 3 -9 -7 -5 -10 -14 -7 -20 4 -6 2 -11 -4
-11 -6 0 -26 -11 -43 -24 -41 -31 -145 -81 -186 -89 -46 -9 -60 -1 -54 34 5
34 -21 84 -39 73 -6 -4 -8 -3 -5 3 7 12 -16 36 -25 27 -3 -3 -5 3 -4 13 0 10
9 21 19 25 11 5 15 13 11 20 -4 7 -4 10 1 6 18 -17 195 133 195 166 0 12 12
23 30 25 3 1 14 -12 23 -29z m-291 -256 c27 -17 39 -33 44 -59 9 -50 -7 -105
-38 -128 -36 -27 -112 -26 -160 3 -21 12 -38 24 -38 27 0 2 6 1 13 -3 9 -6 9
-4 1 7 -20 25 -22 82 -5 115 21 41 76 72 116 66 17 -2 47 -15 67 -28z"/>
<path d="M3564 1106 c-16 -11 -20 -22 -16 -46 5 -32 38 -64 56 -52 6 3 16 7
21 7 26 2 45 19 45 40 0 44 -68 78 -106 51z m70 -28 c8 -14 6 -22 -11 -40
l-22 -21 -12 26 c-22 48 17 79 45 35z"/>
<path d="M3985 1112 c-33 -7 -55 -33 -55 -65 0 -24 3 -27 14 -18 11 9 16 9 22
0 4 -8 3 -9 -4 -5 -7 4 -12 3 -12 -3 0 -21 42 -23 68 -4 35 26 51 89 17 71 -2
-2 -10 4 -17 13 -7 9 -22 14 -33 11z m32 -25 c13 -8 11 -52 -2 -65 -4 -4 -5
-1 -1 6 5 8 0 12 -16 12 -35 0 -47 12 -37 37 8 22 30 26 56 10z"/>
<path d="M411 883 c-11 -38 -23 -88 -27 -112 l-7 -44 27 7 c42 10 101 51 126
87 29 40 19 73 -29 106 -55 37 -66 32 -90 -44z"/>
<path d="M1835 940 c-8 -13 -55 -181 -55 -197 0 -20 30 -15 79 14 90 52 115
109 69 154 -36 34 -81 48 -93 29z"/>
<path d="M874 939 c-3 -6 -16 -8 -29 -5 -18 5 -30 -3 -57 -37 -68 -82 -96
-165 -66 -195 23 -23 74 -14 119 21 93 70 128 226 52 227 -6 0 -15 -5 -19 -11z"/>
<path d="M2277 939 c-10 -6 -24 -8 -32 -5 -20 7 -83 -66 -113 -132 -33 -72
-24 -106 29 -110 48 -4 114 46 151 113 50 91 29 171 -35 134z"/>
<path d="M3744 235 c-25 -22 -31 -62 -14 -95 13 -23 69 -44 85 -30 6 5 15 7
19 3 4 -4 4 0 1 8 -4 10 -15 14 -33 11 -35 -5 -55 17 -50 54 4 36 29 51 65 38
23 -8 28 -16 29 -44 0 -40 20 -51 33 -18 10 27 -9 72 -38 88 -28 15 -70 8 -97
-15z"/>
</g>
</svg>
